<svg xmlns="http://www.w3.org/2000/svg" width="288" height="288">
  <path fill="transparent" d="M280.886 104.349c-.001-.017-.018-.022-.021-.038-.004-.021.014-.035.008-.057-1.615-6.365-8.109-10.924-13.15-14.528-1.562-1.118-3.178-2.165-4.801-3.195-.729-.461-1.469-.909-2.207-1.357-.182-.108-.361-.217-.546-.326 3.349.312 6.728.039 9.923-1.043 4.622-1.565 9.098-6.546 4.61-10.665-4.354-3.998-11.66-5.301-17.214-6.428-17.243-3.503-34.282-1.133-50.59 5.235-3.963 1.547-7.832 3.326-11.664 5.162-1.441.692-1.098.683-.358-.731.381-.726.769-1.574 1.067-2.336 1.035-2.621 1.764-5.253 2.181-8.042 1.022-6.844-.151-15.375-2.327-21.882-4.941-14.774-22.15-9.994-31.472-2.586-12.845 10.206-22.981 23.908-32.45 37.172a384.289 384.289 0 0 0-3.198 4.555c-1.224 1.763-3.407-.683-4.751-1.556-3.875-2.514-7.919-4.764-12.01-6.903a186.959 186.959 0 0 0-21.495-9.543c-3.312-1.23-8.311-3.746-11.992-3.202-2.13.313.164 4.284.584 5.223 2.354 5.265 5.292 10.295 8.176 15.282a253.188 253.188 0 0 0 3.244 5.465c.251.409.503.82.774 1.218 1.376 2.025.036 1.394-1.676.951-7.132-1.847-14.034-6.958-21.518-3.484-5.893 2.733.159 10.173 2.542 13.122 1.124 1.393 2.343 2.71 3.571 4.01.537.566 1.086 1.118 1.635 1.67.667.672 1.413.733.298.756-2.524.054-5.053.12-7.573.285-2.747.179-5.488.446-8.225.744-10.338 1.13-20.695 2.873-30.647 5.935-7.534 2.318-18.24 6.083-21.474 14.119-2.684 6.676-.047 16.533 2.719 22.806 4.412 10.003 13.455 16.878 22.942 21.733 12.848 6.574 27.006 9.682 41.092 12.271.54.099 1.081.196 1.62.297-.887-.164-1.452 3.253-1.464 3.785-.042 1.976.542 3.274 2.368 4.094 1.895.853 4.575.108 6.469-.344 1.954-.47 3.87-1.169 5.719-1.943.526-.222 3.546-2.748 3.827-2.702h.006s0 .002.003.002c4.483.625 8.969 1.227 13.454 1.825 2.976.399 5.162 3.483 8.188 3.619.018.009.036.019.056.024a732.69 732.69 0 0 0-5.119.225c-10.598.495-21.192 1.178-31.753 2.206-8.848.86-18.476 1.483-26.866 4.646-10.167 3.834-20.179 8.133-30.163 12.42-.135.057-.216.269-.164.4 1.018 2.65 3.596 3.723 6.204 4.446 7.835 2.173 16.803.46 24.629-.963 18.366-3.337 36.292-8.779 54.33-13.496.804-.21 1.609-.413 2.415-.61-.558.27-1.117.535-1.673.805-4.399 2.125-8.777 4.308-13.04 6.69-6.299 3.521-12.284 8.076-17.747 12.774-1.717 1.477-8.292 6.99-3.18 8.471 2.393.693 5.314-1.293 7.243-2.383 4.433-2.506 8.873-4.553 13.559-6.544 9.149-3.89 17.734-9.398 25.923-14.991.806-.551 3.291-2.969 3.919-2.35.498.486 1.007.963 1.519 1.435 1.786 1.649 3.657 3.207 5.565 4.713 12.348 9.751 27.021 16.757 42.658 19.004 8.4 1.207 16.893 2.146 25.377 2.468 4.826.184 11.748.854 15.856-2.346 1.349-1.05 1.671-3.052 1.854-4.63.559-4.743.318-9.556.091-14.312-.339-7.03-1.078-13.58-2.862-20.404-1.75-6.699-3.872-13.744-7.496-19.701-.348-.571 2.795-3.712 3.12-4.154a56.227 56.227 0 0 0 3.821-5.947c2.121-3.805 3.607-7.951 4.744-12.144.896-3.31 1.436-6.71 1.808-10.116.056-.515.651-3.867.149-4.092 1.132.507 2.272.99 3.416 1.467 3.367 1.407 6.8 2.662 10.293 3.72 2.41.731 6.85 2.382 9.422 1.477 4.996-1.76 2.474-9.39 1.343-12.912-1.099-3.422-2.651-6.705-4.351-9.867-.908-1.688-1.928-3.313-2.996-4.903-.217-.321-2.358-3.59-2.617-3.562 4.8-.537 9.9.754 14.595 1.604 4.833.876 9.658 1.791 14.552 2.279 4.955.495 15.604.727 17.197-5.941.29-1.201.329-2.099.172-3.351zM93.883 187.057h.007c0 .002-.005.004-.007.006.002-.002 0-.004 0-.006z"/>
  <path fill="#4d4d4d" d="M133.509 126.15c1.823-1.369 3.492 5.808 3.382 10.08s-1.246 13.575-4.094 8.592c-2.848-4.983-2.136-16.536.712-18.672zM159.33 119.916c-1.283.004-4.094 2.14-3.203 9.259.891 7.12 3.684 4.428 4.125.178.432-4.152.611-9.441-.922-9.437z"/>
  <path fill="#4d4d4d" d="M161.441 134.707c-2.407 0-4.824.538-6.627 1.478-5.158 2.687-8.176 9.618-9.514 13.51a.968.968 0 0 0 .109.896c.195.272.544.444.908.444.479 0 .871-.28 1.025-.73 1.207-3.508 3.043-6.792 5.305-9.503 2.031-2.432 4.373-3.596 7.822-3.888 3.504-.302 8.038.832 8.278 4.743.063 1.055 1.365 1.255 1.88.704a.973.973 0 0 0 .253-.748c-.308-5.092-5.075-6.906-9.439-6.906z"/>
  <path fill="#4d4d4d" d="M155.002 142.613a1.035 1.035 0 0 0-1.016-.745c-.359 0-.707.169-.906.44-.188.255-.23.574-.118.929.476 1.498 1.065 3.363.836 4.919-.048.328.044.644.257.89.225.259.559.413.896.413.489 0 .854-.322.929-.82.284-1.965-.254-4.058-.878-6.026zM159.139 140.033v3.916c0 .686.538 1.044 1.067 1.044.53 0 1.067-.359 1.067-1.044v-3.916c0-1.371-2.134-1.371-2.134 0z"/>
  <path fill="#4d4d4d" d="M193.755 128.551l-5.954-3.493c-.607-.36-1.376-.004-1.562.674-.128.472.056.919.479 1.169l4.111 2.411c-1.68 2.801-8.706 13.641-21.904 22.799l.002-.146-1.609 1.242a79.094 79.094 0 0 1-11.873 6.42c-3.043 1.062-7.87 2.331-13.592 2.331-9.152 0-17.657-3.146-25.285-9.354.881.035 1.763.058 2.642.058 2.411 0 4.494-.167 6.366-.513.528-.098.85-.521.801-1.053-.052-.558-.54-1.154-1.31-1.021-1.716.315-3.632.47-5.859.47-2.358 0-4.757-.17-7.078-.334-.826-.059-1.644-.117-2.523-.168-.555 0-.972.416-.989.99-.017.523.336 1.105 1.021 1.146.776.047 1.563.101 2.357.153l1.863.123c1.606 4.593 9.493 24.894 25.509 32.104.928.412 1.709.725 2.458.979l.364.04.006-.013c.453.115.915.174 1.371.174 3.615 0 7.23-3.573 10.744-10.619 3.506-.868 6.266-1.859 8.201-2.952 4.496-2.536 5.502-3.714 5.703-4.017l.11-.168.512-13.227c14.153-9.42 21.628-20.665 23.837-24.366l.001.001c.171.1.353.151.537.151.47 0 .892-.341 1.022-.829.129-.467-.056-.913-.479-1.162zm-56.684 52.39c-4.779-2.914-9.229-7.435-13.238-13.446a8.798 8.798 0 0 1 2.49-.356c2.659 0 5.137 1.146 7.363 3.401 3.075 3.114 4.212 6.612 3.385 10.401zm29.575-24.642l-.373 10.829c-.445.419-1.684 1.417-4.812 3.183-3.35 1.89-8.932 3.086-11.577 3.575v-10.104c7.63-1.856 13.914-5.593 16.762-7.483z"/>
  <path fill="#4d4d4d" d="M280.886 104.349c-.001-.017-.018-.022-.021-.038-.004-.021.014-.035.008-.057-1.615-6.365-8.109-10.924-13.15-14.528-1.562-1.118-3.178-2.165-4.801-3.195-.729-.461-1.469-.909-2.207-1.357-.182-.108-.361-.217-.546-.326 3.349.312 6.728.039 9.923-1.043 4.622-1.565 9.098-6.546 4.61-10.665-4.354-3.998-11.66-5.301-17.214-6.428-17.243-3.503-34.282-1.133-50.59 5.235-3.963 1.547-7.832 3.326-11.664 5.162-1.441.692-1.098.683-.358-.731.381-.726.769-1.574 1.067-2.336 1.035-2.621 1.764-5.253 2.181-8.042 1.022-6.844-.151-15.375-2.327-21.882-4.941-14.774-22.15-9.994-31.472-2.586-12.845 10.206-22.981 23.908-32.45 37.172a384.289 384.289 0 0 0-3.198 4.555c-1.224 1.763-3.407-.683-4.751-1.556-3.875-2.514-7.919-4.764-12.01-6.903a186.959 186.959 0 0 0-21.495-9.543c-3.312-1.23-8.311-3.746-11.992-3.202-2.13.313.164 4.284.584 5.223 2.354 5.265 5.292 10.295 8.176 15.282a253.188 253.188 0 0 0 3.244 5.465c.251.409.503.82.774 1.218 1.376 2.025.036 1.394-1.676.951-7.132-1.847-14.034-6.958-21.518-3.484-5.893 2.733.159 10.173 2.542 13.122 1.124 1.393 2.343 2.71 3.571 4.01.537.566 1.086 1.118 1.635 1.67.667.672 1.413.733.298.756-2.524.054-5.053.12-7.573.285-2.747.179-5.488.446-8.225.744-10.338 1.13-20.695 2.873-30.647 5.935-7.534 2.318-18.24 6.083-21.474 14.119-2.684 6.676-.047 16.533 2.719 22.806 4.412 10.003 13.455 16.878 22.942 21.733 12.848 6.574 27.006 9.682 41.092 12.271.54.099 1.081.196 1.62.297-.887-.164-1.452 3.253-1.464 3.785-.042 1.976.542 3.274 2.368 4.094 1.895.853 4.575.108 6.469-.344 1.954-.47 3.87-1.169 5.719-1.943.526-.222 3.546-2.748 3.827-2.702h.006s0 .002.003.002c4.483.625 8.969 1.227 13.454 1.825 2.976.399 5.162 3.483 8.188 3.619.018.009.036.019.056.024a732.69 732.69 0 0 0-5.119.225c-10.598.495-21.192 1.178-31.753 2.206-8.848.86-18.476 1.483-26.866 4.646-10.167 3.834-20.179 8.133-30.163 12.42-.135.057-.216.269-.164.4 1.018 2.65 3.596 3.723 6.204 4.446 7.835 2.173 16.803.46 24.629-.963 18.366-3.337 36.292-8.779 54.33-13.496.804-.21 1.609-.413 2.415-.61-.558.27-1.117.535-1.673.805-4.399 2.125-8.777 4.308-13.04 6.69-6.299 3.521-12.284 8.076-17.747 12.774-1.717 1.477-8.292 6.99-3.18 8.471 2.393.693 5.314-1.293 7.243-2.383 4.433-2.506 8.873-4.553 13.559-6.544 9.149-3.89 17.734-9.398 25.923-14.991.806-.551 3.291-2.969 3.919-2.35.498.486 1.007.963 1.519 1.435 1.786 1.649 3.657 3.207 5.565 4.713 12.348 9.751 27.021 16.757 42.658 19.004 8.4 1.207 16.893 2.146 25.377 2.468 4.826.184 11.748.854 15.856-2.346 1.349-1.05 1.671-3.052 1.854-4.63.559-4.743.318-9.556.091-14.312-.339-7.03-1.078-13.58-2.862-20.404-1.75-6.699-3.872-13.744-7.496-19.701-.348-.571 2.795-3.712 3.12-4.154a56.227 56.227 0 0 0 3.821-5.947c2.121-3.805 3.607-7.951 4.744-12.144.896-3.31 1.436-6.71 1.808-10.116.056-.515.651-3.867.149-4.092 1.132.507 2.272.99 3.416 1.467 3.367 1.407 6.8 2.662 10.293 3.72 2.41.731 6.85 2.382 9.422 1.477 4.996-1.76 2.474-9.39 1.343-12.912-1.099-3.422-2.651-6.705-4.351-9.867-.908-1.688-1.928-3.313-2.996-4.903-.217-.321-2.358-3.59-2.617-3.562 4.8-.537 9.9.754 14.595 1.604 4.833.876 9.658 1.791 14.552 2.279 4.955.495 15.604.727 17.197-5.941.29-1.201.329-2.099.172-3.351zm-169.758 95.032c-7.64 1.201-15.184 3.885-22.646 5.887-9.158 2.459-18.341 4.834-27.594 6.908-9.151 2.053-18.57 4.04-27.993 3.645-2.951-.125-6.671-.588-9.034-2.59.907.769 7.865-3.047 9.232-3.617 7.37-3.076 14.836-6.784 22.579-8.809 5.709-1.492 11.655-2.185 17.503-2.854 12.601-1.446 25.285-2.216 37.95-2.812 2.617-.125 5.233-.236 7.848-.328.503-.018 1.082.27 1.555.407.579.171 1.158.343 1.738.513-3.54 1.593-7.308 3.016-11.138 3.65zm-18.362-14.149c-2.787 2.598-6.035 3.783-9.656 4.746a14.66 14.66 0 0 1-4.03.521c-2.702-.042-1.852-2.812-1.296-4.418 1.771-5.119 5.395-9.629 7.931-14.389.134-.248-.089-.646-.4-.522-6.249 2.501-13.649 5.154-20.413 3.356-6.858-1.819 1.379-10.566 3.371-12.67 5.893-6.227 12.373-11.877 18.221-18.167a265.387 265.387 0 0 0 11.913-13.735c.886-1.094 1.759-2.2 2.618-3.315l.08.714a192.608 192.608 0 0 1 1.069 18.467c.136 12.701-.123 29.594-9.408 39.412zM277.91 108.39c-5.617 6.141-17.971 2.784-24.934 1.537-7.215-1.292-15.09-3.564-22.357-1.559-.256.07-.352.409-.157.595 5.406 5.17 9.009 12.011 11.533 18.99 1.037 2.867 2.101 6.193 1.685 9.273-.5 3.729-9.746.19-11.722-.451-3.25-1.054-6.433-2.326-9.573-3.663-.767-.327-1.529-.665-2.289-1.008-.227-.102.014-4.866-.01-5.547-.086-2.644-1.031-5.342-3.111-7.039-1.483-1.209-4.041-1.428-5.824-1.93-7.473-2.103-14.939-4.484-22.033-7.653a58.671 58.671 0 0 1-2.247-1.079c-.579-.29-1.927-.482-.798-.91 2.021-.763 4.013-1.599 5.996-2.449 4.037-1.731 7.979-3.683 11.826-5.794 1.478-.81 7.479-3.048 6.957-5.384-.354-1.583-3.072.631-3.525.914-23.387 14.571-52.199 21.529-79.598 19.661-5.256-.359-10.475-1.14-15.636-2.181-.908-.183 3.091-5.561 3.499-6.14 1.257-1.787 2.51-3.578 3.76-5.37.792-1.136 3.418-.339 4.718-.267 3.445.189 6.901.136 10.347-.042 9.583-.493 19.062-2.452 28.08-5.721 9.516-3.45 18.441-8.483 27.441-13.057 19.498-9.903 39.887-17.306 62.047-14.169 3.274.464 27.146 4.458 21.509 11.146-4.245 5.034-13.331 4.199-19.015 2.592-.201-.057-.365.07-.438.249l-.525 1.317c-.059.139.033.334.164.4 3.92 2.04 7.703 4.369 11.369 6.833 4.435 2.986 17.222 11.154 12.861 17.906zm-71.749 58.817c-9.896 11.425-25.489 18.092-39.226 23.615-1.146.459-2.295.902-3.447 1.345-.469.181-.94.354-1.411.528a3.326 3.326 0 0 0-.435.199c.074-.08.159-.189.244-.354.856-1.627 3.245-5.855 1.227-7.225-1.479-1.002-1.904 3.121-2.016 3.5-1.502 5.08-5.26 9.322-10.203 11.217-3.838 1.472-8.357.846-12.156-.389-2.215-.721-4.217-1.943-5.977-3.451-1.948-1.672-2.369-3.693-3.584-5.77-.312-.531-1.781-1.185-1.942-.096-.16 1.087.236 2.044.756 3.025 1.033 1.951-.823 1.088-2.105.857-1.543-.277-3.062-.679-4.57-1.096-8.072-2.237-15.467-6.721-21.638-12.321-1.343-1.217 1.562-6.835 2.02-8.515.98-3.59 1.54-7.287 1.968-10.979 1.404-12.082.826-24.55-.717-36.598-.134-1.032.96-1.871 1.557-2.668 1.406-1.883 2.778-3.792 4.152-5.7 1.886-2.62 4.981-1.112 7.69-.646 2.603.448 5.224.769 7.848 1.049 10.198 1.087 20.51.717 30.659-.662 9.306-1.263 18.451-3.618 27.314-6.701 1.344-.467 3.253 1.144 4.407 1.724a59.797 59.797 0 0 0 3.847 1.735c3.562 1.478 7.191 2.77 10.854 3.976a215.361 215.361 0 0 0 13.44 3.952c5.089 1.312 3.247 13.75 2.851 17.688-1.05 10.465-4.702 20.592-11.407 28.761zm-75.855 29.811c.206.025.339-.185.356-.355-.128 1.307 3.817 3.355 5.256 4.056 2.216 1.076 4.761 1.732 7.203 1.986 5.423.562 10.027-.394 14.211-4.017 1.275-1.104 1.99-2.729 3.582-3.291a176.23 176.23 0 0 0 3.801-1.396 213.116 213.116 0 0 0 11.862-4.93c5.226-2.35 10.335-4.963 15.271-7.877.971-.574 13.076-8.455 12.729-9.002 2.931 4.633 4.575 10.226 6.136 15.436 1.48 4.95 2.85 10.121 3.246 15.29.326 5.04.65 10.081.715 15.133.042 3.441.924 9.521-3.021 11.009-3.533 1.336-7.801 1.104-11.504 1.034-7.049-.132-14.094-.933-21.084-1.786-14.806-1.809-28.164-6.412-40.638-14.652a97.023 97.023 0 0 1-10.772-8.285 68.937 68.937 0 0 1-2.699-2.518c1.09 1.069 5.427-5.828 5.35-5.835zm-64.799-16.75c-15.692-3.531-32.64-8.498-44.623-19.822-7.097-6.706-10.679-15.592-11.36-25.216-.367-5.208.748-8.904 4.857-12.349 4.843-4.063 11.288-6.238 17.244-8.035 12.081-3.645 24.91-5.488 37.491-6.192 9.861-.552 19.778-.425 29.648-.371 4.177.025 8.351.068 12.525.125 1.041.014-.86 1.774-1.337 2.447-.954 1.345-1.914 2.687-2.874 4.027-1.097 1.531-4.458 4.794-4.52 6.793l-.084.112c-.15-.138-.439-.082-.559.085a59.393 59.393 0 0 1-1.875 2.485c-.113.139-.161.37 0 .503.093.078-16.222 18.574-17.487 19.915-4.784 5.061-9.878 9.777-14.863 14.635-3.091 3.01-6.62 6.766-7.485 11.154-1.91 9.682 15.271 6.104 19.623 4.871 2.56-.726 1.083.39.202 1.836a113.607 113.607 0 0 0-2.488 4.291c-.542.981.083.934-.905.752-.844-.154-1.687-.312-2.529-.465-2.868-.529-5.735-1.055-8.601-1.581zM80.799 64.422c11.661 3.02 23.043 8.351 33.581 14.08a134.019 134.019 0 0 1 9.817 5.921c2.478 1.635 2.083 2.328.509 4.675a407.68 407.68 0 0 0-3.507 5.33 253.512 253.512 0 0 0-2.82 4.438c-1.315 2.122-4.16 4.647-4.588 7.17l-.245.348a.342.342 0 0 0-.197-.083 1379.21 1379.21 0 0 0-27.062-.166c-2.042.01-5.957.802-7.525-.679-1.368-1.292-2.675-2.646-3.96-4.021-2.628-2.809-7.047-7.058-7.144-11.22 1.355-4.822 10.202-2.018 13.23-.938 3.041 1.085 5.944 2.471 9.101 3.226 4.038.965 4.91-1.66 2.753-4.799-2.989-4.352-5.467-9.116-7.967-13.759a196.241 196.241 0 0 1-3.549-6.889 48.445 48.445 0 0 1-1.265-2.787c-.014-.036-.032-.04-.049-.068.296.07.592.145.887.221zm94.42-26.714c4.676-1.315 9.701-2.136 14.035.589 4.168 2.621 5.319 8.467 6.033 12.946 1.584 9.939 1.111 19.153-4.443 27.891-.104.167-.029.373.122.479a.022.022 0 0 0-.011.005c-1.004-.622-4.91 2.088-5.829 2.559-2.47 1.265-4.937 2.534-7.411 3.784-5.221 2.635-10.51 5.142-15.979 7.221-8.942 3.398-18.514 5.099-28.041 5.619-2.966.163-5.94.154-8.907.036a75.35 75.35 0 0 1-3.219-.207c-.978-.081-.786.417-.249-.426a415.217 415.217 0 0 1 6.043-9.186c6.991-10.351 14.383-20.467 22.481-29.982 6.735-7.911 15.086-18.077 25.375-21.328zm-59.263 169.176c-5.37 3.507-10.812 6.892-16.472 9.912-6.003 3.205-12.462 5.306-18.375 8.69-1.35.774-2.689 1.562-4.066 2.287-.279.146-4.788 2.302-3.581.371.902-1.443 2.406-2.625 3.661-3.742 4.657-4.144 9.83-7.81 15.019-11.25 7.589-5.031 16.327-8.656 24.552-12.498a894.257 894.257 0 0 1 5.257-2.43c.809-.371 1.619-.738 2.434-1.099.604-.269 3.682.029 3.785-.138-2.614 4.236-8.213 7.249-12.214 9.897zm-12.573-20.359c-2.659-.35-5.317-.699-7.976-1.059a26.812 26.812 0 0 0 2.456-3.474c1.751 1.623 3.601 3.119 5.52 4.533zm-9.5.532h.007c0 .002-.005.004-.007.006.002-.002 0-.004 0-.006z"/>
</svg>
